<?xml version="1.0" encoding="utf-8"?>
<svg width="820" height="731" viewBox="0 0 820 731" xmlns="http://www.w3.org/2000/svg" xmlns:bx="https://boxy-svg.com">
  <path d="M 518.892 744.655 L 481.568 744.655" style="stroke: rgb(0, 0, 0);"/>
  <line style="stroke: rgb(0, 0, 0); paint-order: fill markers;" x1="17.296388024281683" y1="390.5342348640444" x2="19.11706044789028" y2="284.93523429474567"/>
  <line style="stroke: rgb(0, 0, 0);" x1="18.20672423608599" y1="284.93523429474567" x2="62.813198614496656" y2="229.40472537468344"/>
  <line style="stroke: rgb(0, 0, 0);" x1="62.813198614496656" y1="229.40472537468344" x2="62.813198614496656" y2="199.36363038514153"/>
  <line style="stroke: rgb(0, 0, 0);" x1="62.813198614496656" y1="199.36363038514153" x2="83.75093148599552" y2="198.45329417333724"/>
  <line style="stroke: rgb(0, 0, 0); fill: rgb(3, 3, 3);" x1="83.75093148599552" y1="198.45329417333724" x2="109.24034541651591" y2="120.1643799581675"/>
  <line style="stroke: rgb(0, 0, 0);" x1="109.24034541651591" y1="120.1643799581675" x2="120.1643799581675" y2="143.83312146507927"/>
  <line style="stroke: rgb(0, 0, 0);" x1="120.1643799581675" y1="143.83312146507927" x2="170.23287160740395" y2="165.68119054838246"/>
  <line style="stroke: rgb(0, 0, 0);" x1="170.23287160740395" y1="165.68119054838246" x2="170.23287160740395" y2="125.62639722899328"/>
  <line style="stroke: rgb(0, 0, 0);" x1="170.23287160740395" y1="125.62639722899328" x2="229.40472537468344" y2="138.3711041942535"/>
  <line style="stroke: rgb(0, 0, 0);" x1="229.40472537468344" y1="138.3711041942535" x2="229.40472537468344" y2="151.11581115951367"/>
  <line style="stroke: rgb(0, 0, 0);" x1="229.40472537468344" y1="151.11581115951367" x2="241.2390961281393" y2="148.3848025241008"/>
  <line style="stroke: rgb(0, 0, 0);" x1="241.2390961281393" y1="148.3848025241008" x2="241.2390961281393" y2="120.1643799581675"/>
  <line style="stroke: rgb(0, 0, 0);" x1="241.2390961281393" y1="120.1643799581675" x2="278.56288081211557" y2="120.1643799581675"/>
  <line style="stroke: rgb(0, 0, 0);" x1="278.56288081211557" y1="120.1643799581675" x2="277.6525446003113" y2="130.1780782880148"/>
  <line style="stroke: rgb(0, 0, 0);" x1="277.6525446003113" y1="130.1780782880148" x2="389.6238986522401" y2="88.30261254501704"/>
  <line style="stroke: rgb(0, 0, 0);" x1="389.6238986522401" y1="88.30261254501704" x2="389.6238986522401" y2="37.32378468397627"/>
  <line style="stroke: rgb(0, 0, 0);" x1="389.6238986522401" y1="37.32378468397627" x2="420.57532985358625" y2="38.23412089578056"/>
  <line style="stroke: rgb(0, 0, 0);" x1="420.57532985358625" y1="38.23412089578056" x2="438.7820540896722" y2="47.33748301382356"/>
  <line style="stroke: rgb(0, 0, 0);" x1="438.7820540896722" y1="47.33748301382356" x2="439.69239030147656" y2="84.66126769779984"/>
  <line style="stroke: rgb(0, 0, 0);" x1="439.69239030147656" y1="84.66126769779984" x2="454.2577696903453" y2="128.3574058644062"/>
  <line style="stroke: rgb(0, 0, 0);" x1="454.2577696903453" y1="128.3574058644062" x2="479.74718362086566" y2="145.6537938886879"/>
  <line style="stroke: rgb(0, 0, 0);" x1="479.74718362086566" y1="145.6537938886879" x2="478.83684740906136" y2="129.26774207621048"/>
  <line style="stroke: rgb(0, 0, 0);" x1="478.83684740906136" y1="129.26774207621048" x2="509.78827861040753" y2="131.0884144998191"/>
  <line style="stroke: rgb(0, 0, 0);" x1="509.78827861040753" y1="129.26774207621048" x2="509.78827861040753" y2="163.86051812477388"/>
  <line style="stroke: rgb(0, 0, 0);" x1="509.78827861040753" y1="163.86051812477388" x2="541.6500460235582" y2="201.18430280875015"/>
  <line style="stroke: rgb(0, 0, 0);" x1="541.6500460235582" y1="201.18430280875015" x2="530.7260114819064" y2="215.74968219761894"/>
  <line style="stroke: rgb(0, 0, 0);" x1="530.7260114819064" y1="215.74968219761894" x2="531.6363476937108" y2="330.4520448849606"/>
  <line style="stroke: rgb(0, 0, 0);" x1="531.6363476937108" y1="330.4520448849606" x2="540.7397098117538" y2="320.43834655511336"/>
  <line style="stroke: rgb(0, 0, 0);" x1="540.7397098117538" y1="320.43834655511336" x2="541.6500460235582" y2="281.29388944752844"/>
  <line style="stroke: rgb(0, 0, 0);" x1="541.6500460235582" y1="284.0248980829414" x2="551.6637443534053" y2="274.9215359648984"/>
  <line style="stroke: rgb(0, 0, 0);" x1="551.6637443534053" y1="274.9215359648984" x2="560.7671064714484" y2="280.38355323572415"/>
  <line style="stroke: rgb(0, 0, 0);" x1="560.7671064714484" y1="280.38355323572415" x2="599.9115635790331" y2="273.10086354128975"/>
  <line style="stroke: rgb(0, 0, 0);" x1="599.9115635790331" y1="273.10086354128975" x2="599.0012273672289" y2="257.62514794061667"/>
  <line style="stroke: rgb(0, 0, 0);" x1="599.0012273672289" y1="257.62514794061667" x2="627.2216499331621" y2="261.2664927878339"/>
  <line style="stroke: rgb(0, 0, 0);" x1="627.2216499331621" y1="261.2664927878339" x2="629.0423223567707" y2="271.28019111768117"/>
  <line style="stroke: rgb(0, 0, 0);" x1="629.0423223567707" y1="271.28019111768117" x2="657.2627449227041" y2="266.7285100586597"/>
  <line style="stroke: rgb(0, 0, 0);" x1="657.2627449227041" y1="266.7285100586597" x2="659.0834173463127" y2="276.742208388507"/>
  <line style="stroke: rgb(0, 0, 0);" x1="659.0834173463127" y1="276.742208388507" x2="694.5865296066804" y2="263.9975014232468"/>
  <line style="stroke: rgb(0, 0, 0);" x1="694.5865296066804" y1="263.9975014232468" x2="706.4209003601361" y2="243.05976855174788"/>
  <line style="stroke: rgb(0, 0, 0);" x1="706.4209003601361" y1="243.05976855174788" x2="742.8343488323083" y2="373.2378468397627"/>
  <line style="stroke: rgb(0, 0, 0);" x1="742.8343488323083" y1="373.2378468397627" x2="741.0136764086997" y2="461.5404593847797"/>
  <line style="stroke: rgb(0, 0, 0);" x1="741.9240126205038" y1="461.5404593847797" x2="813.8405733530435" y2="498.864244068756"/>
  <line style="stroke: rgb(0, 0, 0);" x1="813.8405733530435" y1="498.864244068756" x2="813.8405733530435" y2="601.7322360026419"/>
  <line style="stroke: rgb(0, 0, 0);" x1="813.8405733530435" y1="601.7322360026419" x2="688.2141761240503" y2="601.7322360026419"/>
  <line style="stroke: rgb(0, 0, 0);" x1="691.8555209712674" y1="603.5529084262505" x2="635.4146758394008" y2="544.3810546589709"/>
  <line style="stroke: rgb(0, 0, 0);" x1="637.2353482630094" y1="543.4707184471667" x2="359.5828036626982" y2="541.6500460235582"/>
  <line style="stroke: rgb(0, 0, 0);" x1="359.5828036626982" y1="541.6500460235582" x2="359.5828036626982" y2="604.4632446380547"/>
  <line style="stroke: rgb(0, 0, 0);" x1="359.5828036626982" y1="604.4632446380547" x2="369.5965019925455" y2="590.8082014609902"/>
  <line style="stroke: rgb(0, 0, 0);" x1="369.5965019925455" y1="590.8082014609902" x2="408.74095910013034" y2="610.8355981206848"/>
  <line style="stroke: rgb(0, 0, 0);" x1="408.74095910013034" y1="610.8355981206848" x2="435.14070924245505" y2="616.2976153915106"/>
  <line style="stroke: rgb(0, 0, 0);" x1="435.14070924245505" y1="616.2976153915106" x2="476.1058387736485" y2="616.2976153915106"/>
  <line style="stroke: rgb(0, 0, 0);" x1="476.1058387736485" y1="616.2976153915106" x2="528.9053390582978" y2="601.7322360026419"/>
  <line style="stroke: rgb(0, 0, 0);" x1="528.9053390582978" y1="601.7322360026419" x2="546.2017270825795" y2="612.6562705442934"/>
  <line style="stroke: rgb(0, 0, 0);" x1="546.2017270825795" y1="612.6562705442934" x2="580.7945031311428" y2="612.6562705442934"/>
  <line style="stroke: rgb(0, 0, 0);" x1="580.7945031311428" y1="612.6562705442934" x2="590.8082014609902" y2="622.6699688741407"/>
  <line style="stroke: rgb(0, 0, 0);" x1="590.8082014609902" y1="622.6699688741407" x2="639.056020686618" y2="622.6699688741407"/>
  <line style="stroke: rgb(0, 0, 0);" x1="639.056020686618" y1="622.6699688741407" x2="646.3387103810524" y2="617.207951603315"/>
  <line style="stroke: rgb(0, 0, 0);" x1="646.3387103810524" y1="617.207951603315" x2="682.7521588532245" y2="646.3387103810524"/>
  <line style="stroke: rgb(0, 0, 0);" x1="682.7521588532245" y1="646.3387103810524" x2="710.0622452073535" y2="647.2490465928568"/>
  <line style="stroke: rgb(0, 0, 0);" x1="710.0622452073535" y1="647.2490465928568" x2="730.9999780788523" y2="627.2216499331621"/>
  <line style="stroke: rgb(0, 0, 0);" x1="730.9999780788523" y1="627.2216499331621" x2="787.4408232107189" y2="649.9800552282697"/>
  <line style="stroke: rgb(0, 0, 0);" x1="787.4408232107189" y1="649.9800552282697" x2="809.2888922940219" y2="653.6214000754869"/>
  <line style="stroke: rgb(0, 0, 0);" x1="18.20672423608599" y1="383.25154516961" x2="9.103362118042995" y2="390.5342348640444"/>
  <line style="stroke: rgb(0, 0, 0);" x1="9.103362118042995" y1="390.5342348640444" x2="16.38605181247739" y2="405.09961425291317"/>
  <line style="stroke: rgb(0, 0, 0);" x1="16.38605181247739" y1="405.09961425291317" x2="242.1494323399436" y2="315.88666549609184"/>
  <line style="stroke: rgb(0, 0, 0);" x1="242.1494323399436" y1="315.88666549609184" x2="236.68741506911783" y2="461.5404593847797"/>
  <line style="stroke: rgb(0, 0, 0);" x1="236.68741506911783" y1="461.5404593847797" x2="138.3711041942535" y2="436.96138166606363"/>
  <line style="stroke: rgb(0, 0, 0);" x1="140.19177661786208" y1="436.05104545425934" x2="15.475715600673084" y2="437.8717178778679"/>
  <line style="stroke: rgb(0, 0, 0);" x1="15.475715600673084" y1="437.8717178778679" x2="13.655043177064485" y2="458.8094507493668"/>
  <line style="stroke: rgb(0, 0, 0);" x1="13.655043177064485" y1="458.8094507493668" x2="129.26774207621048" y2="457.8991145375625"/>
  <line style="stroke: rgb(0, 0, 0);" x1="129.26774207621048" y1="457.8991145375625" x2="192.08094069070714" y2="473.3748301382356"/>
  <line style="stroke: rgb(0, 0, 0);" x1="192.08094069070714" y1="473.3748301382356" x2="179.33623372544696" y2="487.0298733153001"/>
  <line style="stroke: rgb(0, 0, 0);" x1="179.33623372544696" y1="487.0298733153001" x2="142.92278525327498" y2="463.3611318083883"/>
  <line style="stroke: rgb(0, 0, 0);" x1="142.92278525327498" y1="463.3611318083883" x2="9.103362118042995" y2="475.1955025618442"/>
  <line style="stroke: rgb(0, 0, 0);" x1="13.655043177064485" y1="475.1955025618442" x2="13.655043177064485" y2="495.22289922153874"/>
  <line style="stroke: rgb(0, 0, 0);" x1="13.655043177064485" y1="495.22289922153874" x2="128.3574058644062" y2="483.38852846808294"/>
  <line style="stroke: rgb(0, 0, 0);" x1="131.9987507116234" y1="483.38852846808294" x2="173.87421645462115" y2="509.78827861040753"/>
  <line style="stroke: rgb(0, 0, 0);" x1="134.7297593470363" y1="483.38852846808294" x2="127.4470696526019" y2="483.38852846808294"/>
  <line style="stroke: rgb(0, 0, 0);" x1="172.96388024281686" y1="509.78827861040753" x2="184.79825099627274" y2="518.8916407284505"/>
  <line style="stroke: rgb(0, 0, 0);" x1="184.79825099627274" y1="518.8916407284505" x2="189.34993205529423" y2="497.95390785695173"/>
  <line style="stroke: rgb(0, 0, 0);" x1="189.34993205529423" y1="497.95390785695173" x2="188.43959584348994" y2="591.7185376727946"/>
  <line style="stroke: rgb(0, 0, 0);" x1="190.26026826709855" y1="588.0771928255774" x2="181.15690614905554" y2="596.2702187318159"/>
  <line style="stroke: rgb(0, 0, 0);" x1="183.88791478446845" y1="594.4495463082073" x2="170.23287160740395" y2="578.0634944957301"/>
  <line style="stroke: rgb(0, 0, 0);" x1="170.23287160740395" y1="578.0634944957301" x2="118.34370753455892" y2="578.0634944957301"/>
  <line style="stroke: rgb(0, 0, 0);" x1="118.34370753455892" y1="578.0634944957301" x2="108.33000920471162" y2="563.4981151068612"/>
  <line style="stroke: rgb(0, 0, 0);" x1="108.33000920471162" y1="563.4981151068612" x2="80.10958663877832" y2="555.3050892006224"/>
  <line style="stroke: rgb(0, 0, 0);" x1="80.10958663877832" y1="555.3050892006224" x2="32.77210362495478" y2="597.1805549436203"/>
  <line style="stroke: rgb(0, 0, 0);" x1="32.77210362495478" y1="597.1805549436203" x2="10.924034541651594" y2="596.2702187318159"/>
  <line style="stroke: rgb(0, 0, 0);" x1="10.924034541651594" y1="596.2702187318159" x2="14.565379388868791" y2="615.3872791797062"/>
  <line style="stroke: rgb(0, 0, 0);" x1="14.565379388868791" y1="615.3872791797062" x2="41.87546574299776" y2="612.6562705442934"/>
  <line style="stroke: rgb(0, 0, 0);" x1="41.87546574299776" y1="612.6562705442934" x2="80.10958663877832" y2="577.1531582839257"/>
  <line style="stroke: rgb(0, 0, 0);" x1="80.10958663877832" y1="577.1531582839257" x2="93.76462981584282" y2="577.1531582839257"/>
  <line style="stroke: rgb(0, 0, 0);" x1="93.76462981584282" y1="577.1531582839257" x2="108.33000920471162" y2="594.4495463082073"/>
  <line style="stroke: rgb(0, 0, 0);" x1="110.1506816283202" y1="592.6288738845988" x2="163.86051812477388" y2="599.0012273672289"/>
  <line style="stroke: rgb(0, 0, 0);" x1="163.86051812477388" y1="599.0012273672289" x2="170.23287160740395" y2="606.2839170616633"/>
  <line style="stroke: rgb(0, 0, 0);" x1="170.23287160740395" y1="606.2839170616633" x2="129.26774207621048" y2="609.9252619088804"/>
  <line style="stroke: rgb(0, 0, 0);" x1="129.26774207621048" y1="609.9252619088804" x2="116.5230351109503" y2="631.7733309921837"/>
  <line style="stroke: rgb(0, 0, 0);" x1="116.5230351109503" y1="631.7733309921837" x2="70.09588830893104" y2="661.8144259817257"/>
  <line style="stroke: rgb(0, 0, 0);" x1="70.09588830893104" y1="661.8144259817257" x2="76.46824179156113" y2="677.2901415823987"/>
  <line style="stroke: rgb(0, 0, 0);" x1="76.46824179156113" y1="677.2901415823987" x2="125.62639722899328" y2="646.3387103810524"/>
  <line style="stroke: rgb(0, 0, 0);" x1="125.62639722899328" y1="646.3387103810524" x2="136.55043177064488" y2="625.4009775095535"/>
  <line style="stroke: rgb(0, 0, 0);" x1="136.55043177064488" y1="625.4009775095535" x2="175.69488887822976" y2="622.6699688741407"/>
  <line style="stroke: rgb(0, 0, 0);" x1="175.69488887822976" y1="622.6699688741407" x2="219.3910270448361" y2="590.8082014609902"/>
  <line style="stroke: rgb(0, 0, 0);" x1="219.3910270448361" y1="590.8082014609902" x2="238.50808749272642" y2="585.3461841901644"/>
  <line style="stroke: rgb(0, 0, 0);" x1="238.50808749272642" y1="585.3461841901644" x2="254.8941393052038" y2="596.2702187318159"/>
  <line style="stroke: rgb(0, 0, 0);" x1="254.8941393052038" y1="596.2702187318159" x2="284.93523429474567" y2="595.3598825200118"/>
  <line style="stroke: rgb(0, 0, 0);" x1="284.93523429474567" y1="595.3598825200118" x2="309.51431201346173" y2="604.4632446380547"/>
  <line style="stroke: rgb(0, 0, 0);" x1="309.51431201346173" y1="604.4632446380547" x2="335.91406215578644" y2="637.2353482630094"/>
  <line style="stroke: rgb(0, 0, 0);" x1="335.91406215578644" y1="637.2353482630094" x2="371.41717441615407" y2="616.2976153915106"/>
  <line style="stroke: rgb(0, 0, 0);" x1="371.41717441615407" y1="616.2976153915106" x2="430.5890281834335" y2="633.5940034157923"/>
  <line style="stroke: rgb(0, 0, 0);" x1="430.5890281834335" y1="633.5940034157923" x2="479.74718362086566" y2="633.5940034157923"/>
  <line style="stroke: rgb(0, 0, 0);" x1="480.65751983266995" y1="633.5940034157923" x2="516.1606320930377" y2="619.9389602387278"/>
  <line style="stroke: rgb(0, 0, 0);" x1="519.8019769402549" y1="619.9389602387278" x2="541.6500460235582" y2="636.3250120512052"/>
  <line style="stroke: rgb(0, 0, 0);" x1="541.6500460235582" y1="636.3250120512052" x2="576.2428220721215" y2="635.4146758394008"/>
  <line style="stroke: rgb(0, 0, 0);" x1="576.2428220721215" y1="635.4146758394008" x2="589.897865249186" y2="642.6973655338352"/>
  <line style="stroke: rgb(0, 0, 0);" x1="589.897865249186" y1="642.6973655338352" x2="639.056020686618" y2="641.787029322031"/>
  <line style="stroke: rgb(0, 0, 0);" x1="639.056020686618" y1="641.787029322031" x2="678.2004777942029" y2="665.4557708289428"/>
  <line style="stroke: rgb(0, 0, 0);" x1="678.2004777942029" y1="665.4557708289428" x2="723.717288384418" y2="665.4557708289428"/>
  <line style="stroke: rgb(0, 0, 0);" x1="723.717288384418" y1="665.4557708289428" x2="742.8343488323083" y2="649.0697190164653"/>
  <line style="stroke: rgb(0, 0, 0);" x1="742.8343488323083" y1="649.0697190164653" x2="787.4408232107189" y2="672.7384605233772"/>
  <line style="stroke: rgb(0, 0, 0);" x1="787.4408232107189" y1="672.7384605233772" x2="814.7509095648479" y2="671.8281243115728"/>
  <line style="stroke: rgb(0, 0, 0);" x1="814.7509095648479" y1="671.8281243115728" x2="812.9302371412393" y2="655.4420724990955"/>
  <line style="stroke: rgb(0, 0, 0);" x1="812.9302371412393" y1="655.4420724990955" x2="809.2888922940219" y2="655.4420724990955"/>
  <line style="stroke: rgb(0, 0, 0);" x1="210.28766492679313" y1="483.38852846808294" x2="207.55665629138025" y2="580.7945031311428"/>
  <line style="stroke: rgb(0, 0, 0);" x1="207.55665629138025" y1="580.7945031311428" x2="233.9564064337049" y2="567.1394599540783"/>
  <line style="stroke: rgb(0, 0, 0);" x1="233.9564064337049" y1="567.1394599540783" x2="260.3561565760296" y2="576.2428220721215"/>
  <line style="stroke: rgb(0, 0, 0);" x1="260.3561565760296" y1="576.2428220721215" x2="294.03859641278865" y2="576.2428220721215"/>
  <line style="stroke: rgb(0, 0, 0);" x1="294.03859641278865" y1="576.2428220721215" x2="305.87296716624456" y2="581.7048393429473"/>
  <line style="stroke: rgb(0, 0, 0);" x1="305.87296716624456" y1="581.7048393429473" x2="319.52801034330906" y2="581.7048393429473"/>
  <line style="stroke: rgb(0, 0, 0);" x1="319.52801034330906" y1="581.7048393429473" x2="340.4657432148079" y2="612.6562705442934"/>
  <line style="stroke: rgb(0, 0, 0);" x1="340.4657432148079" y1="609.9252619088804" x2="341.3760794266122" y2="532.546683905515"/>
  <line style="stroke: rgb(0, 0, 0);" x1="341.3760794266122" y1="532.546683905515" x2="303.14195853083163" y2="501.5952527041689"/>
  <line style="stroke: rgb(0, 0, 0);" x1="303.14195853083163" y1="501.5952527041689" x2="211.19800113859742" y2="482.47819225627865"/>
  <line style="stroke: rgb(0, 0, 0);" x1="263.0871652114425" y1="314.06599307248325" x2="256.7148117288124" y2="461.5404593847797"/>
  <line style="stroke: rgb(0, 0, 0);" x1="256.7148117288124" y1="461.5404593847797" x2="435.14070924245505" y2="460.6301231729754"/>
  <line style="stroke: rgb(0, 0, 0);" x1="435.14070924245505" y1="460.6301231729754" x2="429.67869197162923" y2="311.3349844370703"/>
  <line style="stroke: rgb(0, 0, 0);" x1="429.67869197162923" y1="311.3349844370703" x2="397.8169245584788" y2="314.97632928428754"/>
  <line style="stroke: rgb(0, 0, 0);" x1="397.8169245584788" y1="314.97632928428754" x2="398.72726077028307" y2="374.148183051567"/>
  <line style="stroke: rgb(0, 0, 0);" x1="398.72726077028307" y1="369.5965019925455" x2="287.66624293015855" y2="362.3138122981111"/>
  <line style="stroke: rgb(0, 0, 0);" x1="285.84557050654996" y1="363.2241485099154" x2="287.66624293015855" y2="313.15565686067896"/>
  <line style="stroke: rgb(0, 0, 0);" x1="262.1768289996382" y1="315.88666549609184" x2="289.4869153537672" y2="315.88666549609184"/>
  <line style="stroke: rgb(0, 0, 0);" x1="82.84059527419123" y1="232.13573401009631" x2="35.50311226036767" y2="292.21792398918006"/>
  <line style="stroke: rgb(0, 0, 0);" x1="35.50311226036767" y1="292.21792398918006" x2="34.592776048563366" y2="373.2378468397627"/>
  <line style="stroke: rgb(0, 0, 0);" x1="35.50311226036767" y1="369.5965019925455" x2="34.592776048563366" y2="379.6102003223928"/>
  <line style="stroke: rgb(0, 0, 0);" x1="34.592776048563366" y1="379.6102003223928" x2="250.34245824618228" y2="297.6799412600059"/>
  <line style="stroke: rgb(0, 0, 0);" x1="34.592776048563366" y1="379.6102003223928" x2="47.33748301382356" y2="373.2378468397627"/>
  <line style="stroke: rgb(0, 0, 0);" x1="47.33748301382356" y1="373.2378468397627" x2="47.33748301382356" y2="286.75590671835425"/>
  <line style="stroke: rgb(0, 0, 0);" x1="47.33748301382356" y1="286.75590671835425" x2="52.799500284649355" y2="282.2042256593328"/>
  <line style="stroke: rgb(0, 0, 0);" x1="52.799500284649355" y1="282.2042256593328" x2="57.35118134367086" y2="293.12826020098436"/>
  <line style="stroke: rgb(0, 0, 0);" x1="57.35118134367086" y1="293.12826020098436" x2="72.82689694434394" y2="286.75590671835425"/>
  <line style="stroke: rgb(0, 0, 0);" x1="72.82689694434394" y1="286.75590671835425" x2="80.10958663877832" y2="267.638846270464"/>
  <line style="stroke: rgb(0, 0, 0);" x1="80.10958663877832" y1="267.638846270464" x2="84.66126769779984" y2="279.47321702391986"/>
  <line style="stroke: rgb(0, 0, 0);" x1="84.66126769779984" y1="279.47321702391986" x2="86.48194012140843" y2="361.4034760863068"/>
  <line style="stroke: rgb(0, 0, 0);" x1="86.48194012140843" y1="282.2042256593328" x2="72.82689694434394" y2="285.84557050654996"/>
  <line style="stroke: rgb(0, 0, 0);" x1="72.82689694434394" y1="285.84557050654996" x2="72.82689694434394" y2="329.54170867315634"/>
  <line style="stroke: rgb(0, 0, 0);" x1="72.82689694434394" y1="329.54170867315634" x2="87.39227633321272" y2="321.34868276691765"/>
  <line style="stroke: rgb(0, 0, 0);" x1="44.60647437841067" y1="294.94893262459294" x2="56.44084513186655" y2="297.6799412600059"/>
  <line style="stroke: rgb(0, 0, 0);" x1="56.44084513186655" y1="297.6799412600059" x2="58.26151755547515" y2="330.4520448849606"/>
  <line style="stroke: rgb(0, 0, 0);" x1="58.26151755547515" y1="330.4520448849606" x2="44.60647437841067" y2="336.82439836759073"/>
  <line style="stroke: rgb(0, 0, 0);" x1="99.2266470866686" y1="265.81817384685536" x2="110.1506816283202" y2="263.0871652114425"/>
  <line style="stroke: rgb(0, 0, 0);" x1="110.1506816283202" y1="263.0871652114425" x2="111.97135405192881" y2="310.424648225266"/>
  <line style="stroke: rgb(0, 0, 0);" x1="111.97135405192881" y1="310.424648225266" x2="100.13698329847293" y2="315.88666549609184"/>
  <line style="stroke: rgb(0, 0, 0);" x1="100.13698329847293" y1="315.88666549609184" x2="100.13698329847293" y2="261.2664927878339"/>
  <line style="stroke: rgb(0, 0, 0);" x1="116.5230351109503" y1="258.53548415242096" x2="127.4470696526019" y2="255.8044755170081"/>
  <line style="stroke: rgb(0, 0, 0);" x1="127.4470696526019" y1="255.8044755170081" x2="130.1780782880148" y2="324.0796914023305"/>
  <line style="stroke: rgb(0, 0, 0);" x1="131.0884144998191" y1="317.7073379197004" x2="115.61269889914601" y2="324.0796914023305"/>
  <line style="stroke: rgb(0, 0, 0);" x1="117.4333713227546" y1="320.43834655511336" x2="117.4333713227546" y2="256.7148117288124"/>
  <line style="stroke: rgb(0, 0, 0);" x1="150.20547494770938" y1="335.91406215578644" x2="150.20547494770938" y2="272.19052732948546"/>
  <line style="stroke: rgb(0, 0, 0);" x1="150.20547494770938" y1="272.19052732948546" x2="142.0124490414707" y2="270.3698549058769"/>
  <line style="stroke: rgb(0, 0, 0);" x1="142.0124490414707" y1="270.3698549058769" x2="131.9987507116234" y2="238.50808749272642"/>
  <line style="stroke: rgb(0, 0, 0);" x1="131.9987507116234" y1="238.50808749272642" x2="131.0884144998191" y2="192.99127690251143"/>
  <line style="stroke: rgb(0, 0, 0);" x1="131.0884144998191" y1="192.99127690251143" x2="114.70236268734172" y2="166.59152676018675"/>
  <line style="stroke: rgb(0, 0, 0);" x1="113.7920264755374" y1="162.95018191296955" x2="118.34370753455892" y2="172.96388024281686"/>
  <line style="stroke: rgb(0, 0, 0);" x1="114.70236268734172" y1="160.21917327755668" x2="98.31631087486431" y2="215.74968219761894"/>
  <line style="stroke: rgb(0, 0, 0);" x1="81.93025906238694" y1="233.0460702219006" x2="81.01992285058265" y2="214.83934598581465"/>
  <line style="stroke: rgb(0, 0, 0);" x1="81.01992285058265" y1="214.83934598581465" x2="99.2266470866686" y2="213.018673562206"/>
  <line style="stroke: rgb(0, 0, 0);" x1="132.90908692342768" y1="166.59152676018675" x2="183.88791478446845" y2="192.99127690251143"/>
  <line style="stroke: rgb(0, 0, 0);" x1="183.88791478446845" y1="192.99127690251143" x2="177.51556130183835" y2="201.18430280875015"/>
  <line style="stroke: rgb(0, 0, 0);" x1="177.51556130183835" y1="201.18430280875015" x2="144.7434576768836" y2="190.26026826709855"/>
  <line style="stroke: rgb(0, 0, 0);" x1="148.3848025241008" y1="190.26026826709855" x2="131.0884144998191" y2="166.59152676018675"/>
  <line style="stroke: rgb(0, 0, 0);" x1="186.61892341988136" y1="187.52925963168565" x2="188.43959584348994" y2="153.84681979492657"/>
  <line style="stroke: rgb(0, 0, 0);" x1="188.43959584348994" y1="153.84681979492657" x2="217.57035462122752" y2="161.12950948936097"/>
  <line style="stroke: rgb(0, 0, 0);" x1="217.57035462122752" y1="161.12950948936097" x2="215.74968219761894" y2="165.68119054838246"/>
  <line style="stroke: rgb(0, 0, 0);" x1="185.70858720807703" y1="191.17060447890285" x2="204.82564765596732" y2="166.59152676018675"/>
  <line style="stroke: rgb(0, 0, 0);" x1="204.82564765596732" y1="166.59152676018675" x2="210.28766492679313" y2="162.95018191296955"/>
  <line style="stroke: rgb(0, 0, 0);" x1="207.55665629138025" y1="163.86051812477388" x2="187.52925963168565" y2="190.26026826709855"/>
  <line style="stroke: rgb(0, 0, 0);" x1="164.77085433657817" y1="325.9003638259391" x2="164.77085433657817" y2="259.4458203642253"/>
  <line style="stroke: rgb(0, 0, 0);" x1="164.77085433657817" y1="259.4458203642253" x2="189.34993205529423" y2="247.6114496107694"/>
  <line style="stroke: rgb(0, 0, 0);" x1="195.72228553792434" y1="245.7907771871608" x2="194.81194932612004" y2="279.47321702391986"/>
  <line style="stroke: rgb(0, 0, 0);" x1="194.81194932612004" y1="279.47321702391986" x2="210.28766492679313" y2="273.10086354128975"/>
  <line style="stroke: rgb(0, 0, 0);" x1="210.28766492679313" y1="273.10086354128975" x2="212.1083373504017" y2="218.48069083303182"/>
  <line style="stroke: rgb(0, 0, 0);" x1="212.1083373504017" y1="218.48069083303182" x2="202.09463902055444" y2="219.3910270448361"/>
  <line style="stroke: rgb(0, 0, 0);" x1="202.09463902055444" y1="219.3910270448361" x2="200.27396659694583" y2="271.28019111768117"/>
  <line style="stroke: rgb(0, 0, 0);" x1="213.9290097740103" y1="217.5703598302131" x2="204.82564765596732" y2="195.72229074690992"/>
  <line style="stroke: rgb(0, 0, 0);" x1="204.82564765596732" y1="194.81195453510563" x2="200.27396659694585" y2="215.74968740660452"/>
  <line style="stroke: rgb(0, 0, 0);" x1="200.27396659694585" y1="215.74968740660452" x2="213.018673562206" y2="216.66002361840881"/>
  <line style="stroke: rgb(0, 0, 0);" x1="236.68741506911778" y1="259.44582557321087" x2="253.9838030933995" y2="253.0734720905808"/>
  <line style="stroke: rgb(0, 0, 0);" x1="253.9838030933995" y1="253.0734720905808" x2="253.9838030933995" y2="192.08094589969272"/>
  <line style="stroke: rgb(0, 0, 0);" x1="253.9838030933995" y1="192.08094589969272" x2="241.2390961281393" y2="172.05354923999815"/>
  <line style="stroke: rgb(0, 0, 0);" x1="241.2390961281393" y1="172.05354923999815" x2="233.0460702219006" y2="207.55666150036583"/>
  <line style="stroke: rgb(0, 0, 0);" x1="233.0460702219006" y1="207.55666150036583" x2="254.8941393052038" y2="194.81195453510563"/>
  <line style="stroke: rgb(0, 0, 0);" x1="233.9564064337049" y1="205.7359890767572" x2="233.9564064337049" y2="258.5354893614066"/>
  <line style="stroke: rgb(0, 0, 0);" x1="233.9564064337049" y1="258.5354893614066" x2="254.8941393052038" y2="250.34246345516786"/>
  <line style="stroke: rgb(0, 0, 0);" x1="281.29388944752844" y1="243.97010997253776" x2="298.59027747181017" y2="236.68742027810336"/>
  <line style="stroke: rgb(0, 0, 0);" x1="298.59027747181017" y1="236.68742027810336" x2="300.41094989541875" y2="170.23287681638953"/>
  <line style="stroke: rgb(0, 0, 0);" x1="300.41094989541875" y1="170.23287681638953" x2="284.93523429474567" y2="144.74346288586915"/>
  <line style="stroke: rgb(0, 0, 0);" x1="284.93523429474567" y1="144.74346288586915" x2="267.638846270464" y2="182.06724756984542"/>
  <line style="stroke: rgb(0, 0, 0);" x1="267.638846270464" y1="182.06724756984542" x2="270.3698549058769" y2="247.61145481975498"/>
  <line style="stroke: rgb(0, 0, 0);" x1="270.3698549058769" y1="247.61145481975498" x2="286.75590671835425" y2="241.23910133712488"/>
  <line style="stroke: rgb(0, 0, 0);" x1="167.50186297199107" y1="257.6251531496023" x2="196.63262174972863" y2="243.97010997253776"/>
  <line style="stroke: rgb(0, 0, 0);" x1="168.41219918379537" y1="256.714816937798" x2="196.63262174972863" y2="243.97010997253776"/>
  <line style="stroke: rgb(0, 0, 0);" x1="214.83934598581465" y1="236.68742027810336" x2="233.9564064337049" y2="227.58405816006038"/>
  <line style="stroke: rgb(0, 0, 0);" x1="257.62514794061667" y1="220.30136846562598" x2="271.28019111768117" y2="212.1083425593873"/>
  <line style="stroke: rgb(0, 0, 0);" x1="295.85926883639723" y1="203.00498044134432" x2="322.25901897872194" y2="192.08094589969272"/>
  <line style="stroke: rgb(0, 0, 0);" x1="322.25901897872194" y1="192.08094589969272" x2="322.25901897872194" y2="227.58405816006038"/>
  <line style="stroke: rgb(0, 0, 0);" x1="322.25901897872194" y1="227.58405816006038" x2="339.5554070030036" y2="220.30136846562598"/>
  <line style="stroke: rgb(0, 0, 0);" x1="337.734734579395" y1="219.3910322538217" x2="338.6450707911993" y2="165.68119575736804"/>
  <line style="stroke: rgb(0, 0, 0);" x1="341.3760794266122" y1="220.30136846562598" x2="338.6450707911993" y2="161.12951469834655"/>
  <line style="stroke: rgb(0, 0, 0);" x1="338.6450707911993" y1="161.12951469834655" x2="321.34868276691765" y2="164.77085954556375"/>
  <line style="stroke: rgb(0, 0, 0);" x1="321.34868276691765" y1="164.77085954556375" x2="321.34868276691765" y2="223.9427133128432"/>
  <line style="stroke: rgb(0, 0, 0);" x1="323.16935519052623" y1="162.03985091015085" x2="331.3623810967649" y2="133.81942834421756"/>
  <line style="stroke: rgb(0, 0, 0);" x1="329.54170867315634" y1="133.81942834421756" x2="338.6450707911993" y2="162.03985091015085"/>
  <line style="stroke: rgb(0, 0, 0);" x1="172.05354403101256" y1="242.14943754892917" x2="213.018673562206" y2="172.05354923999815"/>
  <line style="stroke: rgb(0, 0, 0);" x1="213.018673562206" y1="172.05354923999815" x2="254.8941393052038" y2="163.86052333375943"/>
  <line style="stroke: rgb(0, 0, 0);" x1="252.16313066979092" y1="164.77085954556375" x2="261.2664927878339" y2="160.21917848654223"/>
  <line style="stroke: rgb(0, 0, 0);" x1="258.53548415242096" y1="161.12951469834655" x2="258.53548415242096" y2="138.37110940323907"/>
  <line style="stroke: rgb(0, 0, 0);" x1="258.53548415242096" y1="138.37110940323907" x2="262.1768289996382" y2="138.37110940323907"/>
  <line style="stroke: rgb(0, 0, 0);" x1="262.1768289996382" y1="138.37110940323907" x2="263.0871652114425" y2="151.11581636849925"/>
  <line style="stroke: rgb(0, 0, 0);" x1="263.0871652114425" y1="151.11581636849925" x2="401.45826940569594" y2="98.3163160838499"/>
  <line style="stroke: rgb(0, 0, 0);" x1="401.45826940569594" y1="98.3163160838499" x2="401.45826940569594" y2="48.24782443461344"/>
  <line style="stroke: rgb(0, 0, 0);" x1="401.45826940569594" y1="48.24782443461344" x2="406.92028667652175" y2="48.24782443461344"/>
  <line style="stroke: rgb(0, 0, 0);" x1="406.92028667652175" y1="48.24782443461344" x2="406.92028667652175" y2="97.4059798720456"/>
  <line style="stroke: rgb(0, 0, 0);" x1="406.92028667652175" y1="97.4059798720456" x2="374.148183051567" y2="161.12951469834655"/>
  <line style="stroke: rgb(0, 0, 0);" x1="374.148183051567" y1="161.12951469834655" x2="344.1070880620251" y2="170.23287681638953"/>
  <line style="stroke: rgb(0, 0, 0);" x1="314.06599307248325" y1="182.9775837816497" x2="300.41094989541875" y2="187.52926484067123"/>
  <line style="stroke: rgb(0, 0, 0);" x1="268.5491824822683" y1="200.2739718059314" x2="259.4458203642253" y2="204.8256528649529"/>
  <line style="stroke: rgb(0, 0, 0);" x1="231.22539779829202" y1="214.83935119480017" x2="222.12203568024904" y2="218.4806960420174"/>
  <line style="stroke: rgb(0, 0, 0);" x1="172.05354403101256" y1="242.14943754892917" x2="191.17060447890285" y2="233.95641164269048"/>
  <line style="stroke: rgb(0, 0, 0);" x1="286.75590671835425" y1="317.70734312868603" x2="288.57657914196284" y2="304.9626361634258"/>
  <line style="stroke: rgb(0, 0, 0);" x1="288.57657914196284" y1="304.9626361634258" x2="400.54793319389165" y2="304.9626361634258"/>
  <line style="stroke: rgb(0, 0, 0);" x1="400.54793319389165" y1="304.9626361634258" x2="399.63759698208736" y2="314.97633449327316"/>
  <line style="stroke: rgb(0, 0, 0);" x1="182.06724236085984" y1="321.34868797590326" x2="182.97757857266416" y2="310.42465343425164"/>
  <line style="stroke: rgb(0, 0, 0);" x1="182.97757857266416" y1="310.42465343425164" x2="201.18430280875015" y2="300.41095510440437"/>
  <line style="stroke: rgb(0, 0, 0);" x1="201.18430280875015" y1="300.41095510440437" x2="201.18430280875015" y2="314.97633449327316"/>
  <line style="stroke: rgb(0, 0, 0);" x1="182.97757857266416" y1="318.6176793404903" x2="182.06724236085984" y2="323.16936039951185"/>
  <line style="stroke: rgb(0, 0, 0);" x1="166.59152676018675" y1="327.7210414585333" x2="166.59152676018675" y2="260.3561617850152"/>
  <line style="stroke: rgb(0, 0, 0);" x1="166.59152676018675" y1="260.3561617850152" x2="198.4532941733372" y2="248.52179103155927"/>
  <line style="stroke: rgb(0, 0, 0);" x1="210.28766492679313" y1="311.33498964605593" x2="211.19800113859742" y2="272.1905325384711"/>
  <line style="stroke: rgb(0, 0, 0);" x1="213.9290097740103" y1="270.3698601148625" x2="196.63262174972863" y2="279.47322223290547"/>
  <line style="stroke: rgb(0, 0, 0);" x1="211.19800113859742" y1="309.51431722244735" x2="211.19800113859742" y2="314.97633449327316"/>
  <line style="stroke: rgb(0, 0, 0);" x1="220.3013632566404" y1="310.42465343425164" x2="219.3910270448361" y2="292.2179291981657"/>
  <line style="stroke: rgb(0, 0, 0);" x1="219.3910270448361" y1="292.2179291981657" x2="237.59775128092213" y2="283.1145670801227"/>
  <line style="stroke: rgb(0, 0, 0);" x1="237.59775128092213" y1="283.1145670801227" x2="239.4184237045307" y2="304.05229995162154"/>
  <line style="stroke: rgb(0, 0, 0);" x1="249.43212203437798" y1="298.5902826807958" x2="259.4458203642253" y2="298.5902826807958"/>
  <line style="stroke: rgb(0, 0, 0);" x1="259.4458203642253" y1="298.5902826807958" x2="259.4458203642253" y2="281.29389465651406"/>
  <line style="stroke: rgb(0, 0, 0);" x1="258.53548415242096" y1="298.5902826807958" x2="257.62514794061667" y2="277.6525498092969"/>
  <line style="stroke: rgb(0, 0, 0);" x1="257.62514794061667" y1="277.6525498092969" x2="269.4595186940726" y2="274.01120496207966"/>
  <line style="stroke: rgb(0, 0, 0);" x1="271.28019111768117" y1="245.7907823961464" x2="270.3698549058769" y2="275.8318773856883"/>
  <line style="stroke: rgb(0, 0, 0);" x1="277.6525446003113" y1="298.5902826807958" x2="277.6525446003113" y2="243.97010997253776"/>
  <line style="stroke: rgb(0, 0, 0);" x1="276.742208388507" y1="297.67994646899143" x2="290.3972515655715" y2="298.5902826807958"/>
  <line style="stroke: rgb(0, 0, 0);" x1="290.3972515655715" y1="298.5902826807958" x2="290.3972515655715" y2="290.3972567745571"/>
  <line style="stroke: rgb(0, 0, 0);" x1="290.3972515655715" y1="290.3972567745571" x2="297.6799412600059" y2="291.3075929863614"/>
  <line style="stroke: rgb(0, 0, 0);" x1="297.6799412600059" y1="291.3075929863614" x2="296.7696050482015" y2="263.9975066322324"/>
  <line style="stroke: rgb(0, 0, 0);" x1="296.7696050482015" y1="263.9975066322324" x2="312.24532064887467" y2="258.5354893614066"/>
  <line style="stroke: rgb(0, 0, 0);" x1="314.97632928428754" y1="182.06724756984542" x2="315.88666549609184" y2="294.94893783357855"/>
  <line style="stroke: rgb(0, 0, 0);" x1="315.88666549609184" y1="294.94893783357855" x2="373.2378468397627" y2="294.94893783357855"/>
  <line style="stroke: rgb(0, 0, 0);" x1="373.2378468397627" y1="294.94893783357855" x2="373.2378468397627" y2="175.69489408721535"/>
  <line style="stroke: rgb(0, 0, 0);" x1="373.2378468397627" y1="175.69489408721535" x2="342.28641563841654" y2="184.79825620525833"/>
  <line style="stroke: rgb(0, 0, 0);" x1="344.1070880620251" y1="249.43212724336357" x2="358.6724674508939" y2="242.14943754892917"/>
  <line style="stroke: rgb(0, 0, 0);" x1="358.6724674508939" y1="242.14943754892917" x2="359.5828036626982" y2="278.5628860211012"/>
  <line style="stroke: rgb(0, 0, 0);" x1="359.5828036626982" y1="275.8318773856883" x2="344.1070880620251" y2="283.1145670801227"/>
  <line style="stroke: rgb(0, 0, 0);" x1="344.1070880620251" y1="247.61145481975498" x2="344.1070880620251" y2="283.1145670801227"/>
  <line style="stroke: rgb(0, 0, 0);" x1="382.3412089578057" y1="293.12826540996997" x2="383.25154516961" y2="186.6189286288669"/>
  <line style="stroke: rgb(0, 0, 0);" x1="383.25154516961" y1="188.43960105247552" x2="399.63759698208736" y2="197.5429631705185"/>
  <line style="stroke: rgb(0, 0, 0);" x1="399.63759698208736" y1="197.5429631705185" x2="396.9065883466745" y2="221.21170467743028"/>
  <line style="stroke: rgb(0, 0, 0);" x1="396.9065883466745" y1="221.21170467743028" x2="416.02364879456474" y2="228.49439437186467"/>
  <line style="stroke: rgb(0, 0, 0);" x1="416.02364879456474" y1="228.49439437186467" x2="419.66499364178196" y2="200.2739718059314"/>
  <line style="stroke: rgb(0, 0, 0);" x1="419.66499364178196" y1="200.2739718059314" x2="431.4993643952378" y2="206.64632528856148"/>
  <line style="stroke: rgb(0, 0, 0);" x1="431.4993643952378" y1="206.64632528856148" x2="428.76835575982494" y2="230.3150667954733"/>
  <line style="stroke: rgb(0, 0, 0);" x1="428.76835575982494" y1="230.3150667954733" x2="451.5267610549324" y2="236.68742027810336"/>
  <line style="stroke: rgb(0, 0, 0);" x1="451.5267610549324" y1="236.68742027810336" x2="450.61642484312813" y2="220.30136846562598"/>
  <line style="stroke: rgb(0, 0, 0);" x1="450.61642484312813" y1="220.30136846562598" x2="520.7123131520592" y2="251.25279966697215"/>
  <line style="stroke: rgb(0, 0, 0);" x1="520.7123131520592" y1="251.25279966697215" x2="519.8019769402549" y2="328.63137767033766"/>
  <line style="stroke: rgb(0, 0, 0);" x1="519.8019769402549" y1="328.63137767033766" x2="491.5815543743216" y2="313.1556620696646"/>
  <line style="stroke: rgb(0, 0, 0);" x1="493.4022267979302" y1="312.2453258578602" x2="495.2228992215388" y2="286.75591192733987"/>
  <line style="stroke: rgb(0, 0, 0);" x1="495.2228992215388" y1="286.75591192733987" x2="479.7471836208657" y2="263.0871704204281"/>
  <line style="stroke: rgb(0, 0, 0);" x1="479.7471836208657" y1="263.0871704204281" x2="462.45079559658404" y2="275.8318773856883"/>
  <line style="stroke: rgb(0, 0, 0);" x1="462.45079559658404" y1="275.8318773856883" x2="459.71978696117117" y2="304.05229995162154"/>
  <line style="stroke: rgb(0, 0, 0);" x1="460.63012317297546" y1="304.05229995162154" x2="440.60272651328086" y2="295.85927404538285"/>
  <line style="stroke: rgb(0, 0, 0);" x1="440.60272651328086" y1="295.85927404538285" x2="404.1892780411089" y2="299.5006188926001"/>
  <line style="stroke: rgb(0, 0, 0);" x1="404.1892780411089" y1="299.5006188926001" x2="404.1892780411089" y2="291.3075929863614"/>
  <line style="stroke: rgb(0, 0, 0);" x1="404.1892780411089" y1="291.3075929863614" x2="296.7696050482015" y2="290.3972567745571"/>
  <line style="stroke: rgb(0, 0, 0);" x1="384.1618813814143" y1="171.14321302819383" x2="418.75465742997767" y2="103.77833335467568"/>
  <line style="stroke: rgb(0, 0, 0);" x1="418.75465742997767" y1="103.77833335467568" x2="419.66499364178196" y2="55.53051412904784"/>
  <line style="stroke: rgb(0, 0, 0);" x1="419.66499364178196" y1="55.53051412904784" x2="426.94768333621636" y2="61.90286761167794"/>
  <line style="stroke: rgb(0, 0, 0);" x1="426.94768333621636" y1="61.90286761167794" x2="425.1270109126078" y2="95.58530744843699"/>
  <line style="stroke: rgb(0, 0, 0);" x1="425.1270109126078" y1="95.58530744843699" x2="450.61642484312813" y2="168.41220439278095"/>
  <line style="stroke: rgb(0, 0, 0);" x1="448.79575241951954" y1="163.86052333375943" x2="451.5267610549324" y2="172.96388545180244"/>
  <line style="stroke: rgb(0, 0, 0);" x1="451.5267610549324" y1="172.96388545180244" x2="459.71978696117117" y2="159.30884227473794"/>
  <line style="stroke: rgb(0, 0, 0);" x1="459.71978696117117" y1="159.30884227473794" x2="482.4781922562786" y2="215.74968740660452"/>
  <line style="stroke: rgb(0, 0, 0);" x1="481.5678560444743" y1="213.0186787711916" x2="517.9813045166462" y2="229.40473058366896"/>
  <line style="stroke: rgb(0, 0, 0);" x1="517.9813045166462" y1="229.40473058366896" x2="517.0709683048419" y2="239.4184289135163"/>
  <line style="stroke: rgb(0, 0, 0);" x1="517.0709683048419" y1="239.4184289135163" x2="456.0784421139539" y2="211.198006347583"/>
  <line style="stroke: rgb(0, 0, 0);" x1="456.0784421139539" y1="211.198006347583" x2="456.0784421139539" y2="188.43960105247552"/>
  <line style="stroke: rgb(0, 0, 0);" x1="456.0784421139539" y1="188.43960105247552" x2="430.5890281834335" y2="175.69489408721535"/>
  <line style="stroke: rgb(0, 0, 0);" x1="430.5890281834335" y1="175.69489408721535" x2="428.76835575982494" y2="188.43960105247552"/>
  <line style="stroke: rgb(0, 0, 0);" x1="428.76835575982494" y1="188.43960105247552" x2="422.39600227719484" y2="185.70859241706262"/>
  <line style="stroke: rgb(0, 0, 0);" x1="422.39600227719484" y1="185.70859241706262" x2="422.39600227719484" y2="172.96388545180244"/>
  <line style="stroke: rgb(0, 0, 0);" x1="422.39600227719484" y1="172.96388545180244" x2="403.2789418293046" y2="165.68119575736804"/>
  <line style="stroke: rgb(0, 0, 0);" x1="403.2789418293046" y1="165.68119575736804" x2="400.54793319389165" y2="182.9775837816497"/>
  <line style="stroke: rgb(0, 0, 0);" x1="384.1618813814143" y1="171.14321302819383" x2="384.1618813814143" y2="178.42590272262822"/>
  <line style="stroke: rgb(0, 0, 0);" x1="384.1618813814143" y1="178.42590272262822" x2="396.9065883466745" y2="182.9775837816497"/>
  <line style="stroke: rgb(0, 0, 0);" x1="478.8368474090614" y1="167.50186818097663" x2="491.5815543743216" y2="178.42590272262822"/>
  <line style="stroke: rgb(0, 0, 0);" x1="491.5815543743216" y1="178.42590272262822" x2="490.67121816251733" y2="149.29514394489067"/>
  <line style="stroke: rgb(0, 0, 0);" x1="489.76088195071304" y1="149.29514394489067" x2="497.9539078569517" y2="150.20548015669496"/>
  <line style="stroke: rgb(0, 0, 0);" x1="497.9539078569517" y1="150.20548015669496" x2="496.1332354333431" y2="176.60523029901964"/>
  <line style="stroke: rgb(0, 0, 0);" x1="496.1332354333431" y1="176.60523029901964" x2="521.6226493638635" y2="197.5429631705185"/>
  <line style="stroke: rgb(0, 0, 0);" x1="521.6226493638635" y1="202.09464422954002" x2="488.85054573890875" y2="189.34993726427982"/>
  <line style="stroke: rgb(0, 0, 0);" x1="488.85054573890875" y1="189.34993726427982" x2="478.8368474090614" y2="164.77085954556375"/>
  <line style="stroke: rgb(0, 0, 0);" x1="489.76088195071304" y1="205.7359890767572" x2="489.76088195071304" y2="192.99128211149701"/>
  <line style="stroke: rgb(0, 0, 0);" x1="489.76088195071304" y1="192.99128211149701" x2="519.8019769402549" y2="207.55666150036583"/>
  <line style="stroke: rgb(0, 0, 0);" x1="519.8019769402549" y1="207.55666150036583" x2="517.9813045166462" y2="219.3910322538217"/>
  <line style="stroke: rgb(0, 0, 0);" x1="517.9813045166462" y1="219.3910322538217" x2="489.76088195071304" y2="203.9153166531486"/>
  <line style="stroke: rgb(0, 0, 0);" x1="404.1892780411089" y1="244.88044618434205" x2="416.933985006369" y2="250.34246345516786"/>
  <line style="stroke: rgb(0, 0, 0);" x1="416.933985006369" y1="250.34246345516786" x2="417.8443212181734" y2="284.9352395037313"/>
  <line style="stroke: rgb(0, 0, 0);" x1="417.8443212181734" y1="284.9352395037313" x2="402.3686056175003" y2="280.38355844470976"/>
  <line style="stroke: rgb(0, 0, 0);" x1="402.3686056175003" y1="280.38355844470976" x2="403.2789418293046" y2="243.05977376073346"/>
  <line style="stroke: rgb(0, 0, 0);" x1="430.5890281834335" y1="254.89414451418938" x2="446.0647437841066" y2="260.3561617850152"/>
  <line style="stroke: rgb(0, 0, 0);" x1="446.0647437841066" y1="260.3561617850152" x2="444.244071360498" y2="292.2179291981657"/>
  <line style="stroke: rgb(0, 0, 0);" x1="444.244071360498" y1="292.2179291981657" x2="431.4993643952378" y2="287.66624813914416"/>
  <line style="stroke: rgb(0, 0, 0);" x1="431.4993643952378" y1="287.66624813914416" x2="432.40970060704217" y2="252.16313587877644"/>
  <line style="stroke: rgb(0, 0, 0);" x1="432.40970060704217" y1="252.16313587877644" x2="446.0647437841066" y2="260.3561617850152"/>
  <line style="stroke: rgb(0, 0, 0);" x1="558.9464340478397" y1="324.99003282312043" x2="558.9464340478397" y2="301.32129131620866"/>
  <line style="stroke: rgb(0, 0, 0);" x1="558.9464340478397" y1="301.32129131620866" x2="580.794503131143" y2="311.33498964605593"/>
  <line style="stroke: rgb(0, 0, 0);" x1="580.794503131143" y1="311.33498964605593" x2="580.794503131143" y2="294.94893783357855"/>
  <line style="stroke: rgb(0, 0, 0);" x1="580.794503131143" y1="294.94893783357855" x2="591.7185376727945" y2="294.94893783357855"/>
  <line style="stroke: rgb(0, 0, 0);" x1="591.7185376727945" y1="294.94893783357855" x2="590.8082014609902" y2="315.88667070507745"/>
  <line style="stroke: rgb(0, 0, 0);" x1="590.8082014609902" y1="315.88667070507745" x2="612.6562705442934" y2="310.42465343425164"/>
  <line style="stroke: rgb(0, 0, 0);" x1="612.6562705442934" y1="310.42465343425164" x2="613.5666067560977" y2="280.38355844470976"/>
  <line style="stroke: rgb(0, 0, 0);" x1="613.5666067560977" y1="280.38355844470976" x2="618.1182878151192" y2="280.38355844470976"/>
  <line style="stroke: rgb(0, 0, 0);" x1="618.1182878151192" y1="280.38355844470976" x2="619.9389602387278" y2="296.76961025718714"/>
  <line style="stroke: rgb(0, 0, 0);" x1="619.9389602387278" y1="296.76961025718714" x2="642.6973655338353" y2="291.3075929863614"/>
  <line style="stroke: rgb(0, 0, 0);" x1="642.6973655338353" y1="291.3075929863614" x2="642.6973655338353" y2="301.32129131620866"/>
  <line style="stroke: rgb(0, 0, 0);" x1="642.6973655338353" y1="301.32129131620866" x2="689.1245123358545" y2="286.75591192733987"/>
  <line style="stroke: rgb(0, 0, 0);" x1="689.1245123358545" y1="286.75591192733987" x2="659.0834173463127" y2="338.64507600018493"/>
  <line style="stroke: rgb(0, 0, 0);" x1="659.0834173463127" y1="338.64507600018493" x2="590.8082014609902" y2="360.4931450834881"/>
  <line style="stroke: rgb(0, 0, 0);" x1="590.8082014609902" y1="360.4931450834881" x2="593.539210096403" y2="341.3760846355978"/>
  <line style="stroke: rgb(0, 0, 0);" x1="560.7671064714483" y1="323.16936039951185" x2="596.270218731816" y2="341.3760846355978"/>
  <line style="stroke: rgb(0, 0, 0);" x1="558.0360978360354" y1="323.16936039951185" x2="561.6774426832526" y2="325.9003690349247"/>
  <line style="stroke: rgb(0, 0, 0);" x1="603.5529084262504" y1="319.5280155522946" x2="610.8355981206848" y2="312.2453258578602"/>
  <line style="stroke: rgb(0, 0, 0);" x1="610.8355981206848" y1="312.2453258578602" x2="629.0423223567708" y2="315.88667070507745"/>
  <line style="stroke: rgb(0, 0, 0);" x1="629.0423223567708" y1="315.88667070507745" x2="619.9389602387278" y2="343.19675705920645"/>
  <line style="stroke: rgb(0, 0, 0);" x1="605.373580849859" y1="317.70734312868603" x2="603.5529084262504" y2="346.8381019064236"/>
  <line style="stroke: rgb(0, 0, 0);" x1="603.5529084262504" y1="346.8381019064236" x2="619.9389602387278" y2="337.73473978838064"/>
  <line style="stroke: rgb(0, 0, 0);" x1="609.9252619088805" y1="341.3760846355978" x2="610.8355981206848" y2="319.5280155522946"/>
  <line style="stroke: rgb(0, 0, 0);" x1="610.8355981206848" y1="319.5280155522946" x2="616.2976153915106" y2="319.5280155522946"/>
  <line style="stroke: rgb(0, 0, 0);" x1="616.2976153915106" y1="319.5280155522946" x2="614.476942967902" y2="336.82440357657634"/>
  <line style="stroke: rgb(0, 0, 0);" x1="687.303839912246" y1="287.66624813914416" x2="659.993753558117" y2="336.82440357657634"/>
  <line style="stroke: rgb(0, 0, 0);" x1="674.5591329469858" y1="349.5691105418365" x2="673.6487967351815" y2="336.82440357657634"/>
  <line style="stroke: rgb(0, 0, 0);" x1="673.6487967351815" y1="336.82440357657634" x2="702.779555512919" y2="285.8455757155356"/>
  <line style="stroke: rgb(0, 0, 0);" x1="702.779555512919" y1="285.8455757155356" x2="724.6276245962222" y2="371.4171796251397"/>
  <line style="stroke: rgb(0, 0, 0);" x1="674.5591329469858" y1="349.5691105418365" x2="728.2689694434393" y2="370.5068434133354"/>
  <line style="stroke: rgb(0, 0, 0);" x1="591.7185376727945" y1="374.1481882605526" x2="659.0834173463127" y2="353.2104553890537"/>
  <line style="stroke: rgb(0, 0, 0);" x1="659.0834173463127" y1="353.2104553890537" x2="659.0834173463127" y2="413.29264536813747"/>
  <line style="stroke: rgb(0, 0, 0);" x1="592.6288738845988" y1="374.1481882605526" x2="659.993753558117" y2="413.29264536813747"/>
  <line style="stroke: rgb(0, 0, 0);" x1="634.5043396275966" y1="371.4171796251397" x2="641.787029322031" y2="365.0448261425096"/>
  <line style="stroke: rgb(0, 0, 0);" x1="644.5180379574439" y1="365.0448261425096" x2="645.4283741692482" y2="397.8169297674644"/>
  <line style="stroke: rgb(0, 0, 0);" x1="633.5940034157923" y1="372.327515836944" x2="632.683667203988" y2="396.9065935556601"/>
  <line style="stroke: rgb(0, 0, 0);" x1="632.683667203988" y1="396.9065935556601" x2="643.6077017456396" y2="397.8169297674644"/>
  <line style="stroke: rgb(0, 0, 0);" x1="639.056020686618" y1="366.8654985661182" x2="643.6077017456396" y2="365.9551623543139"/>
  <line style="stroke: rgb(0, 0, 0);" x1="670.9177880997686" y1="363.224153718901" x2="680.0211502178115" y2="366.8654985661182"/>
  <line style="stroke: rgb(0, 0, 0);" x1="681.8418226414201" y1="366.8654985661182" x2="681.8418226414201" y2="394.17558492024716"/>
  <line style="stroke: rgb(0, 0, 0);" x1="444.244071360498" y1="314.06599828146886" x2="527.9950028464935" y2="347.7484381182279"/>
  <line style="stroke: rgb(0, 0, 0);" x1="443.33373514869373" y1="314.97633449327316" x2="450.61642484312813" y2="465.1818094409825"/>
  <line style="stroke: rgb(0, 0, 0);" x1="450.61642484312813" y1="465.1818094409825" x2="552.5740805652097" y2="488.8505509478943"/>
  <line style="stroke: rgb(0, 0, 0);" x1="552.5740805652097" y1="488.8505509478943" x2="553.484416777014" y2="465.1818094409825"/>
  <line style="stroke: rgb(0, 0, 0);" x1="553.484416777014" y1="465.1818094409825" x2="540.7397098117538" y2="460.630128381961"/>
  <line style="stroke: rgb(0, 0, 0);" x1="540.7397098117538" y1="460.630128381961" x2="532.546683905515" y2="416.02365400355035"/>
  <line style="stroke: rgb(0, 0, 0);" x1="532.546683905515" y1="416.02365400355035" x2="527.9950028464935" y2="345.9277656946193"/>
  <line style="stroke: rgb(0, 0, 0);" x1="16.38605181247739" y1="413.4949424005566" x2="97.40597466306002" y2="386.1848560464277"/>
  <line style="stroke: rgb(0, 0, 0);" x1="95.58530223945141" y1="386.1848560464277" x2="209.37732871498883" y2="365.2471231749288"/>
  <line style="stroke: rgb(0, 0, 0);" x1="209.37732871498883" y1="365.2471231749288" x2="243.97010476355217" y2="361.60577832771156"/>
  <line style="stroke: rgb(0, 0, 0);" x1="400.54793319389165" y1="358.8747696922987" x2="434.23037303065075" y2="365.2471231749288"/>
  <line style="stroke: rgb(0, 0, 0);" x1="537.0983649645366" y1="341.578381668017" x2="543.4707184471666" y2="336.1163643971912"/>
  <line style="stroke: rgb(0, 0, 0);" x1="543.4707184471666" y1="336.1163643971912" x2="547.1120632943838" y2="403.48124407070935"/>
  <line style="stroke: rgb(0, 0, 0);" x1="543.4707184471666" y1="396.19855437627496" x2="539.8293735999495" y2="338.8473730326041"/>
  <line style="stroke: rgb(0, 0, 0);" x1="558.0360978360354" y1="344.3093903034299" x2="579.8841669193387" y2="355.23342484508146"/>
  <line style="stroke: rgb(0, 0, 0);" x1="579.8841669193387" y1="355.23342484508146" x2="579.8841669193387" y2="383.45384741101475"/>
  <line style="stroke: rgb(0, 0, 0);" x1="557.1257616242311" y1="344.3093903034299" x2="558.0360978360354" y2="418.04662345957814"/>
  <line style="stroke: rgb(0, 0, 0);" x1="558.0360978360354" y1="418.04662345957814" x2="576.2428220721214" y2="425.32931315401254"/>
  <line style="stroke: rgb(0, 0, 0);" x1="576.2428220721214" y1="425.32931315401254" x2="578.06349449573" y2="383.45384741101475"/>
  <line style="stroke: rgb(0, 0, 0);" x1="578.06349449573" y1="383.45384741101475" x2="577.1531582839257" y2="381.63317498740616"/>
  <line style="stroke: rgb(0, 0, 0);" x1="576.2428220721214" y1="381.63317498740616" x2="577.1531582839257" y2="351.5920799978643"/>
  <line style="stroke: rgb(0, 0, 0);" x1="590.8082014609902" y1="395.28821816447066" x2="632.683667203988" y2="416.22595103596956"/>
  <line style="stroke: rgb(0, 0, 0);" x1="632.683667203988" y1="416.22595103596956" x2="631.7733309921837" y2="448.08771844912"/>
  <line style="stroke: rgb(0, 0, 0);" x1="631.7733309921837" y1="448.08771844912" x2="588.0771928255773" y2="430.79133042483835"/>
  <line style="stroke: rgb(0, 0, 0);" x1="588.0771928255773" y1="430.79133042483835" x2="589.8978652491859" y2="394.37788195266637"/>
  <line style="stroke: rgb(0, 0, 0);" x1="645.4283741692482" y1="421.6879683067953" x2="656.3524087108998" y2="426.23964936581683"/>
  <line style="stroke: rgb(0, 0, 0);" x1="656.3524087108998" y1="426.23964936581683" x2="653.6214000754868" y2="438.0740201192727"/>
  <line style="stroke: rgb(0, 0, 0);" x1="655.4420724990955" y1="438.0740201192727" x2="797.4545215405661" y2="508.16990842820377"/>
  <line style="stroke: rgb(0, 0, 0);" x1="796.5441853287618" y1="508.16990842820377" x2="796.5441853287618" y2="518.1836067580512"/>
  <line style="stroke: rgb(0, 0, 0);" x1="796.5441853287618" y1="518.1836067580512" x2="644.5180379574439" y2="453.54973571994583"/>
  <line style="stroke: rgb(0, 0, 0);" x1="644.5180379574439" y1="453.54973571994583" x2="645.4283741692482" y2="421.6879683067953"/>
  <line style="stroke: rgb(0, 0, 0);" x1="568.960132377687" y1="470.8461237442275" x2="586.2565204019687" y2="477.2184772268576"/>
  <line style="stroke: rgb(0, 0, 0);" x1="586.2565204019687" y1="477.2184772268576" x2="592.6288738845988" y2="398.01922679988354"/>
  <line style="stroke: rgb(0, 0, 0);" x1="446.0647437841066" y1="367.0677955985374" x2="532.546683905515" y2="404.39158028251364"/>
  <line style="stroke: rgb(0, 0, 0);" x1="588.9875290373816" y1="428.0603217894254" x2="631.7733309921837" y2="448.08771844912"/>
  <line style="stroke: rgb(0, 0, 0);" x1="647.2490465928568" y1="451.7290632963372" x2="739.193003985091" y2="494.51486525113927"/>
  <line style="stroke: rgb(0, 0, 0);" x1="652.7110638636825" y1="453.54973571994583" x2="641.787029322031" y2="450.8187270845329"/>
  <line style="stroke: rgb(0, 0, 0);" x1="568.960132377687" y1="469.0254513206189" x2="568.0497961658828" y2="493.604529039335"/>
  <line style="stroke: rgb(0, 0, 0);" x1="568.0497961658828" y1="493.604529039335" x2="640.8766931102267" y2="521.8249516052683"/>
  <line style="stroke: rgb(0, 0, 0);" x1="640.8766931102267" y1="521.8249516052683" x2="630.8629947803794" y2="451.7290632963372"/>
  <line style="stroke: rgb(0, 0, 0);" x1="647.2490465928568" y1="463.5634340497931" x2="652.7110638636825" y2="526.3766326642898"/>
  <line style="stroke: rgb(0, 0, 0);" x1="652.7110638636825" y1="526.3766326642898" x2="793.813176693349" y2="572.803779466309"/>
  <line style="stroke: rgb(0, 0, 0);" x1="793.813176693349" y1="572.803779466309" x2="794.7235129051533" y2="526.3766326642898"/>
  <line style="stroke: rgb(0, 0, 0);" x1="648.159382804661" y1="461.7427616261845" x2="796.5441853287618" y2="527.2869688760941"/>
  <line style="stroke: rgb(0, 0, 0);" x1="670.9177880997686" y1="362.81957007203374" x2="670.9177880997686" y2="393.77100127337997"/>
  <line style="stroke: rgb(0, 0, 0);" x1="670.9177880997686" y1="393.77100127337997" x2="682.7521588532245" y2="398.3226823324014"/>
  <line style="stroke: rgb(0, 0, 0);" x1="681.8418226414201" y1="391.9503288497713" x2="681.8418226414201" y2="397.41234612059714"/>
  <line style="stroke: rgb(0, 0, 0);" x1="706.4209003601361" y1="373.74360461368536" x2="719.1656073253964" y2="379.2056218845112"/>
  <line style="stroke: rgb(0, 0, 0);" x1="707.3312365719405" y1="375.56427703729395" x2="706.4209003601361" y2="401.05369096781436"/>
  <line style="stroke: rgb(0, 0, 0);" x1="706.4209003601361" y1="401.05369096781436" x2="715.5242624781793" y2="404.69503581503153"/>
  <line style="stroke: rgb(0, 0, 0);" x1="715.5242624781793" y1="404.69503581503153" x2="716.4345986899834" y2="377.38494946090253"/>
  <line style="stroke: rgb(0, 0, 0);" x1="724.6276245962222" y1="369.19192355466384" x2="723.717288384418" y2="472.0599154885497"/>
  <line style="stroke: rgb(0, 0, 0);" x1="654.5317362872911" y1="432.9154583809648" x2="659.0834173463127" y2="348.254190683165"/>
  <line style="stroke: rgb(0, 0, 0);" x1="659.0834173463127" y1="348.254190683165" x2="673.6487967351813" y2="348.254190683165"/>
  <line style="stroke: rgb(0, 0, 0);" x1="190.26026826709855" y1="473.6782848025892" x2="324.9900276141348" y2="502.8090435803268"/>
  <line style="stroke: rgb(0, 0, 0);" x1="324.9900276141348" y1="502.8090435803268" x2="349.56910533285094" y2="533.760474781673"/>
  <line style="stroke: rgb(0, 0, 0);" x1="349.56910533285094" y1="533.760474781673" x2="644.5180379574438" y2="536.4914834170859"/>
  <line style="stroke: rgb(0, 0, 0);" x1="644.5180379574438" y1="536.4914834170859" x2="699.1382106657018" y2="597.4840096079739"/>
  <line style="stroke: rgb(0, 0, 0);" x1="698.2278744538976" y1="593.8426647607567" x2="791.0821680579361" y2="594.753000972561"/>
  <line style="stroke: rgb(0, 0, 0);" x1="178.42589751364267" y1="239.7218783688843" x2="201.18430280875015" y2="228.79784382723273"/>
  <line style="stroke: rgb(0, 0, 0);" x1="213.018673562206" y1="221.51515413279833" x2="234.8667426455092" y2="212.4117920147553"/>
  <line style="stroke: rgb(0, 0, 0);" x1="253.0734668815952" y1="205.1291023203209" x2="268.5491824822683" y2="199.66708504949514"/>
  <line style="stroke: rgb(0, 0, 0);" x1="211.19800113859742" y1="236.9908697334714" x2="233.9564064337049" y2="227.88750761542838"/>
  <line style="stroke: rgb(0, 0, 0);" x1="250.34245824618228" y1="222.42549034460262" x2="264.90783763505107" y2="214.23246443836393"/>
  <line style="stroke: rgb(0, 0, 0);" x1="399.63759698208736" y1="179.63968838980054" x2="397.8169245584788" y2="203.3084298967123"/>
  <line style="stroke: rgb(0, 0, 0);" x1="423.30633848899913" y1="175.99834354258334" x2="418.75465742997767" y2="210.5911195911467"/>
  <line style="stroke: rgb(0, 0, 0);" x1="430.5890281834335" y1="178.72935217799625" x2="429.67869197162923" y2="209.68078337934242"/>
  <line style="stroke: rgb(0, 0, 0);" x1="457.8991145375625" y1="191.47405914325643" x2="450.61642484312813" y2="233.3495248862542"/>
  <line style="stroke: rgb(0, 0, 0);" x1="457.8991145375625" y1="301.6247407715766" x2="495.22289922153874" y2="316.1901201604454"/>
  <line style="stroke: rgb(0, 0, 0);" x1="209.37732871498883" y1="163.25362615935197" x2="216.66001840942323" y2="162.34328994754767"/>
  <line style="stroke: rgb(0, 0, 0);" x1="172.96388024281686" y1="241.6436884566492" x2="163.86051812477388" y2="262.5814213281481"/>
  <line style="stroke: rgb(0, 0, 0);" x1="615.3872791797062" y1="339.04966311970924" x2="621.7596326623363" y2="339.04966311970924"/>
  <line style="stroke: rgb(0, 0, 0);" x1="615.3872791797062" y1="339.04966311970924" x2="615.3872791797062" y2="339.04966311970924"/>
  <line style="" x1="614.476942967902" y1="333.5876458488834" x2="614.476942967902" y2="341.7806717551221"/>
  <line style="stroke: rgb(0, 0, 0);" x1="238.50808749272642" y1="461.9450517132896" x2="435.14070924245505" y2="460.12437928968103"/>
  <line style="stroke: rgb(0, 0, 0);" x1="436.05104545425934" y1="458.30370686607245" x2="453.347433478541" y2="464.6760603487025"/>
  <line style="stroke: rgb(0, 0, 0);" x1="548.9327357179925" y1="486.5241294320057" x2="654.5317362872911" y2="528.3995951750035"/>
  <line style="stroke: rgb(0, 0, 0);" x1="233.0460702219006" y1="461.9450517132896" x2="272.19052732948546" y2="474.6897586785498"/>
  <line style="stroke: rgb(0, 0, 0);" x1="272.19052732948546" y1="474.6897586785498" x2="432.40970060704217" y2="471.9587500431369"/>
  <line style="stroke: rgb(0, 0, 0);" x1="432.40970060704217" y1="471.9587500431369" x2="448.79575241951954" y2="478.331103525767"/>
  <line style="stroke: rgb(0, 0, 0);" x1="448.79575241951954" y1="478.331103525767" x2="639.056020686618" y2="530.220267598612"/>
  <line style="stroke: rgb(0, 0, 0);" x1="544.3810546589709" y1="393.6698358279672" x2="547.1120632943839" y2="401.86286173420586"/>
  <line style="stroke: rgb(0, 0, 0);" x1="201.18430280875015" y1="217.0646107379331" x2="206.64632007957596" y2="220.7059555851503"/>
  <line style="stroke: rgb(0, 0, 0);" x1="467.00247665560556" y1="280.78814556423407" x2="464.2714680201926" y2="301.72587843573297"/>
  <line style="stroke: rgb(0, 0, 0);" x1="467.91281286740985" y1="281.69848177603836" x2="477.92651119725707" y2="270.7744472343868"/>
  <line style="stroke: rgb(0, 0, 0);" x1="477.92651119725707" y1="270.7744472343868" x2="488.8505457389087" y2="288.98117147047276"/>
  <line style="stroke: rgb(0, 0, 0);" x1="488.8505457389087" y1="288.98117147047276" x2="487.0298733153001" y2="310.82924055377595"/>
  <line style="stroke: rgb(0, 0, 0);" x1="463.3611318083883" y1="298.08453358851574" x2="463.3611318083883" y2="302.63621464753726"/>
  <line style="stroke: rgb(0, 0, 0);" x1="406.00995046471746" y1="173.36847257132672" x2="402.3686056175003" y2="210.692257255303"/>
  <line style="stroke: rgb(0, 0, 0);" x1="402.3686056175003" y1="210.692257255303" x2="410.561631523739" y2="217.0646107379331"/>
  <line style="stroke: rgb(0, 0, 0);" x1="410.561631523739" y1="217.0646107379331" x2="415.11331258276044" y2="178.83048984215253"/>
  <line style="stroke: rgb(0, 0, 0);" x1="415.11331258276044" y1="178.83048984215253" x2="407.83062288832605" y2="176.09948120673963"/>
  <line style="stroke: rgb(0, 0, 0);" x1="436.96138166606363" y1="187.02351574839122" x2="450.61642484312813" y2="194.30620544282561"/>
  <line style="stroke: rgb(0, 0, 0);" x1="450.61642484312813" y1="194.30620544282561" x2="446.0647437841066" y2="227.9886452795847"/>
  <line style="stroke: rgb(0, 0, 0);" x1="434.23037303065075" y1="184.2925071129783" x2="432.40970060704217" y2="222.52662800875888"/>
  <line style="stroke: rgb(0, 0, 0);" x1="432.40970060704217" y1="222.52662800875888" x2="448.79575241951954" y2="227.0783090677804"/>
  <line style="stroke: rgb(0, 0, 0);" x1="267.638846270464" y1="184.2925071129783" x2="302.23162231902734" y2="171.54780014771814"/>
  <line style="stroke: rgb(0, 0, 0);" x1="402.3686056175003" y1="237.09200739762767" x2="421.48566606539055" y2="245.28503330386636"/>
  <line style="stroke: rgb(0, 0, 0);" x1="421.48566606539055" y1="245.28503330386636" x2="423.30633848899913" y2="289.89150768227705"/>
  <line style="stroke: rgb(0, 0, 0);" x1="398.72726077028307" y1="238.002343609432" x2="397.8169245584788" y2="284.42949041145124"/>
  <line style="stroke: rgb(0, 0, 0);" x1="397.8169245584788" y1="284.42949041145124" x2="422.39600227719484" y2="289.89150768227705"/>
  <line style="stroke: rgb(0, 0, 0);" x1="398.72726077028307" y1="236.18167118582338" x2="398.72726077028307" y2="236.18167118582338"/>
  <line style="stroke: rgb(0, 0, 0);" x1="402.3686056175003" y1="238.002343609432" x2="397.8169245584788" y2="237.09200739762767"/>
  <line style="stroke: rgb(0, 0, 0);" x1="431.4993643952378" y1="247.105705727475" x2="448.79575241951954" y2="256.209067845518"/>
  <line style="stroke: rgb(0, 0, 0);" x1="448.79575241951954" y1="256.209067845518" x2="446.9750799959109" y2="294.44318874129857"/>
  <line style="stroke: rgb(0, 0, 0);" x1="446.9750799959109" y1="294.44318874129857" x2="427.85801954802065" y2="288.98117147047276"/>
  <line style="stroke: rgb(0, 0, 0);" x1="427.85801954802065" y1="288.98117147047276" x2="428.76835575982494" y2="244.37469709206206"/>
  <line style="stroke: rgb(0, 0, 0);" x1="428.76835575982494" y1="245.28503330386636" x2="432.40970060704217" y2="248.0160419392793"/>
  <rect x="296.77" y="328.126" width="18.207" height="34.593" style="fill: rgb(216, 216, 216);"/>
  <rect x="327.721" y="328.126" width="17.296" height="34.593" style="fill: rgb(216, 216, 216);"/>
  <rect x="358.672" y="331.767" width="13.655" height="32.772" style="fill: rgb(216, 216, 216);"/>
  <rect x="384.162" y="335.408" width="10.924" height="30.951" style="fill: rgb(216, 216, 216);"/>
  <line style="stroke: rgb(0, 0, 0);" x1="295.85926883639723" y1="363.6287408384253" x2="296.7696050482015" y2="326.30495615444903"/>
  <line style="stroke: rgb(0, 0, 0);" x1="296.7696050482015" y1="326.30495615444903" x2="315.88666549609184" y2="326.30495615444903"/>
  <line style="stroke: rgb(0, 0, 0);" x1="315.88666549609184" y1="326.30495615444903" x2="315.88666549609184" y2="364.5390770502296"/>
  <line style="stroke: rgb(0, 0, 0);" x1="328.63137246135204" y1="328.1256285780576" x2="327.72103624954775" y2="363.6287408384253"/>
  <line style="stroke: rgb(0, 0, 0);" x1="327.72103624954775" y1="328.1256285780576" x2="343.19675185022083" y2="329.0359647898619"/>
  <line style="stroke: rgb(0, 0, 0);" x1="343.19675185022083" y1="329.0359647898619" x2="342.28641563841654" y2="364.5390770502296"/>
  <line style="stroke: rgb(0, 0, 0);" x1="357.7621312390896" y1="331.76697342527484" x2="372.3275106279584" y2="331.76697342527484"/>
  <line style="stroke: rgb(0, 0, 0);" x1="358.6724674508939" y1="333.5876458488834" x2="358.6724674508939" y2="366.3597494738382"/>
  <line style="stroke: rgb(0, 0, 0);" x1="371.41717441615407" y1="329.94630100166626" x2="370.5068382043498" y2="367.27008568564247"/>
  <line style="stroke: rgb(0, 0, 0);" x1="383.25154516961" y1="332.67730963707913" x2="395.0859159230659" y2="334.4979820606877"/>
  <line style="stroke: rgb(0, 0, 0);" x1="395.0859159230659" y1="334.4979820606877" x2="395.9962521348702" y2="370.0010943210554"/>
  <line style="stroke: rgb(0, 0, 0);" x1="384.1618813814143" y1="329.94630100166626" x2="384.1618813814143" y2="368.1804218974468"/>
  <rect x="405.1" y="180.651" width="6.372" height="32.772" style="fill: rgb(216, 216, 216);"/>
  <rect x="436.051" y="190.665" width="10.924" height="28.22" style="fill: rgb(216, 216, 216);"/>
  <rect x="406.01" y="248.926" width="9.103" height="30.951" style="fill: rgb(216, 216, 216);"/>
  <rect x="434.23" y="261.671" width="9.103" height="26.4" style="fill: rgb(216, 216, 216);"/>
  <polyline style="fill: rgb(216, 216, 216); stroke: rgb(0, 0, 0);" points="475.196 281.698"/>
  <polyline style="fill: rgb(216, 216, 216); stroke: rgb(0, 0, 0);" points="467.002 301.726"/>
  <polyline style="fill: rgb(216, 216, 216); stroke: rgb(0, 0, 0);" points="469.733 283.519"/>
  <polygon style="fill: rgb(216, 216, 216); stroke: rgb(0, 0, 0);" points="467.002 301.726"/>
  <polygon style="fill: rgb(216, 216, 216); stroke: rgb(0, 0, 0);" points="473.375 289.892"/>
  <polygon style="fill: rgb(216, 216, 216); stroke: rgb(0, 0, 0);" points="473.375 288.071"/>
  <polygon style="fill: rgb(216, 216, 216); stroke: rgb(0, 0, 0);" points="467.002 303.547"/>
  <polygon style="fill: rgb(216, 216, 216); stroke: rgb(0, 0, 0);" points="470.644 287.16"/>
  <polygon style="fill: rgb(216, 216, 216); stroke: rgb(0, 0, 0);" points="469.733 284.429"/>
  <polygon style="fill: rgb(216, 216, 216); stroke: rgb(0, 0, 0);" points="469.733 284.429 467.913 300.816 484.299 308.098 485.209 289.892 477.927 278.967"/>
  <rect x="235.777" y="207.961" width="14.565" height="42.786" style="fill: rgb(216, 216, 216);"/>
  <rect x="274.011" y="185.203" width="20.027" height="51.889" style="fill: rgb(216, 216, 216);"/>
  <rect x="323.169" y="167.906" width="10.014" height="53.71" style="fill: rgb(216, 216, 216);"/>
  <rect x="203.915" y="223.437" width="6.372" height="52.799" style="fill: rgb(216, 216, 216);"/>
  <rect x="48.248" y="298.085" width="6.372" height="37.324" style="fill: rgb(216, 216, 216);"/>
  <rect x="75.558" y="291.712" width="0.91" height="30.951" style="fill: rgb(216, 216, 216);"/>
  <rect x="74.648" y="288.071" width="7.283" height="28.22" style="fill: rgb(216, 216, 216);"/>
  <rect x="102.868" y="269.864" width="5.462" height="40.965" style="fill: rgb(216, 216, 216);"/>
  <rect x="120.164" y="262.581" width="5.462" height="55.531" style="fill: rgb(216, 216, 216);"/>
  <rect x="346.838" y="253.478" width="9.103" height="24.579" style="fill: rgb(216, 216, 216);"/>
  <rect x="299.501" y="266.223" width="12.745" height="21.848" style="fill: rgb(216, 216, 216);"/>
  <rect x="222.122" y="289.892" width="15.476" height="18.207" style="fill: rgb(216, 216, 216);"/>
  <rect x="184.798" y="306.278" width="13.655" height="10.924" style="fill: rgb(216, 216, 216);"/>
  <rect x="610.836" y="323.574" width="2.731" height="15.476" style="fill: rgb(216, 216, 216);"/>
  <rect x="561.677" y="349.974" width="12.745" height="70.096" style="fill: rgb(216, 216, 216);"/>
  <rect x="636.325" y="371.822" width="6.372" height="22.758" style="fill: rgb(216, 216, 216);"/>
  <rect x="671.828" y="366.36" width="5.462" height="24.579" style="fill: rgb(216, 216, 216);"/>
  <rect x="708.242" y="377.284" width="4.552" height="22.758" style="fill: none;"/>
  <rect x="708.242" y="377.284" width="7.283" height="21.848" style="fill: rgb(216, 216, 216); stroke: rgb(186, 218, 85);"/>
  <line style="stroke: rgb(0, 0, 0);" x1="16.38605181247739" y1="384.5664737099242" x2="34.592776048563366" y2="376.3734478036855"/>
  <line style="stroke: rgb(0, 0, 0);" x1="55.53050892006226" y1="332.67730963707913" x2="47.33748301382356" y2="337.2289906961006"/>
  <line style="stroke: rgb(0, 0, 0);" x1="10.013698329847294" y1="392.7594996161629" x2="19.11706044789028" y2="413.6972324876618"/>
  <path d="M 289.487 202.019 L 299.013 218.519 L 279.961 218.519 L 289.487 202.019 Z" style="fill: rgb(216, 216, 216);" transform="matrix(-0.813547, -0.581499, 0.581499, -0.813547, 354.328491, 534.315613)" bx:shape="triangle 279.961 202.019 19.052 16.5 0.5 0 1@5880d212"/>
  <path d="M 349.569 166.618 L 362.948 189.792 L 336.19 189.792 L 349.569 166.618 Z" style="fill: rgb(216, 216, 216);" transform="matrix(-0.258819, 0.965926, -0.965926, -0.258819, 552.108215, -123.808228)" bx:shape="triangle 336.19 166.618 26.758 23.174 0.5 0 1@93951474"/>
  <path d="M 386.893 163.16 L 395.384 177.866 L 378.402 177.866 L 386.893 163.16 Z" style="fill: rgb(216, 216, 216);" transform="matrix(-0.785872, -0.618389, 0.618389, -0.785872, 529.182739, 530.801575)" bx:shape="triangle 378.402 163.16 16.982 14.706 0.5 0 1@74b404d8"/>
  <line style="stroke: rgb(0, 0, 0);" x1="58.26151755547515" y1="290.80184389408134" x2="44.60647437841067" y2="293.5328525294943"/>
  <line style="stroke: rgb(0, 0, 0);" x1="56.44084513186655" y1="293.5328525294943" x2="57.35118134367086" y2="294.44318874129857"/>
  <line style="stroke: rgb(0, 0, 0);" x1="56.44084513186655" y1="295.35352495310286" x2="56.44084513186655" y2="302.63621464753726"/>
  <line style="stroke: rgb(0, 0, 0);" x1="243.05976855174788" y1="316.39240590672915" x2="269.4595186940726" y2="316.39240590672915"/>
  <line style="stroke: rgb(0, 0, 0);" x1="259.4458203642253" y1="299.0960178824475" x2="292.21792398918006" y2="297.2753454588389"/>
  <line style="stroke: rgb(0, 0, 0);" x1="519.8019769402549" y1="249.93786244501536" x2="524.3536579992763" y2="199.8693707957789"/>
  <line style="stroke: rgb(0, 0, 0);" x1="518.8916407284505" y1="198.0486983721703" x2="527.9950028464937" y2="201.6900432193875"/>
  <line style="stroke: rgb(0, 0, 0);" x1="487.9402095271044" y1="182.5729827714972" x2="484.29886467988723" y2="214.4347501846477"/>
  <polyline style="fill: rgb(216, 216, 216); stroke: rgb(0, 0, 0);" points="516.161 214.435 516.161 209.883 492.492 196.228 492.492 201.69 515.25 214.435"/>
  <polyline style="fill: rgb(216, 216, 216); stroke: rgb(0, 0, 0);" points="18.207 380.116 30.041 375.564"/>
  <line style="stroke: rgb(0, 0, 0);" x1="201.18430280875015" y1="268.1445866811013" x2="201.18430280875015" y2="278.1582850109486"/>
  <line style="stroke: rgb(0, 0, 0);" x1="201.18430280875015" y1="278.1582850109486" x2="211.19800113859742" y2="273.6066039519271"/>
  <line style="stroke: rgb(0, 0, 0);" x1="213.018673562206" y1="269.9652591047099" x2="212.1083373504017" y2="313.6613972713163"/>
  <line style="stroke: rgb(0, 0, 0);" x1="305.87296716624456" y1="186.2143276187144" x2="318.6176741315047" y2="178.93163792428"/>
  <line style="stroke: rgb(0, 0, 0);" x1="341.3760794266122" y1="170.73861201804132" x2="350.47944154465523" y2="167.09726717082413"/>
  <line style="stroke: rgb(0, 0, 0);" x1="345.0174242738294" y1="168.00760338262842" x2="340.4657432148079" y2="169.82827580623703"/>
  <line style="stroke: rgb(0, 0, 0);" x1="317.7073379197004" y1="179.8419741360843" x2="317.7073379197004" y2="179.8419741360843"/>
  <line style="stroke: rgb(0, 0, 0);" x1="20.02739665969459" y1="402.8743460281376" x2="95.58530223945141" y2="374.6539234622043"/>
  <line style="stroke: rgb(0, 0, 0);" x1="90.12328496862563" y1="374.6539234622043" x2="239.4184237045307" y2="350.07484574348825"/>
  <line style="stroke: rgb(0, 0, 0);" x1="398.72726077028307" y1="342.79215604905386" x2="433.32003681884646" y2="351.89551816709684"/>
  <line style="stroke: rgb(0, 0, 0);" x1="446.9750799959109" y1="354.6265268025097" x2="530.7260114819064" y2="388.3089666392688"/>
  <line style="stroke: rgb(0, 0, 0);" x1="261.2664927878339" y1="346.433500896271" x2="288.57657914196284" y2="344.61282847266244"/>
  <line style="stroke: rgb(0, 0, 0);" x1="261.2664927878339" y1="360.9988802851398" x2="284.93523429474567" y2="359.17820786153123"/>
  <line style="stroke: rgb(0, 0, 0);" x1="140.19177661786208" y1="196.83491747990143" x2="142.92278525327498" y2="234.15870216387768"/>
  <line style="stroke: rgb(0, 0, 0);" x1="142.92278525327498" y1="234.15870216387768" x2="150.20547494770938" y2="256.0067712471809"/>
  <line style="stroke: rgb(0, 0, 0);" x1="150.20547494770938" y1="256.0067712471809" x2="154.75715600673087" y2="256.91710745898524"/>
  <line style="stroke: rgb(0, 0, 0);" x1="154.75715600673087" y1="256.91710745898524" x2="172.05354403101256" y2="215.95197792779172"/>
  <line style="stroke: rgb(0, 0, 0);" x1="141.1021128296664" y1="198.65558990351005" x2="169.32253539559966" y2="216.862314139596"/>
  <line style="stroke: rgb(0, 0, 0);" x1="541.6500460235582" y1="319.73030607348187" x2="559.856770259644" y2="325.1923233443077"/>
  <line style="stroke: rgb(0, 0, 0);" x1="793.8131766933489" y1="573.1072176355416" x2="793.8131766933489" y2="594.0449505070405"/>
  <line style="stroke: rgb(0, 0, 0);" x1="790.1718318461317" y1="593.1346142952362" x2="795.6338491169574" y2="594.0449505070405"/>
  <line style="stroke: rgb(0, 0, 0);" x1="635.4146758394008" y1="529.4110794689352" x2="797.4545215405662" y2="581.3002435417803"/>
  <line style="stroke: rgb(0, 0, 0);" x1="191.17060447890285" y1="475.70124297248157" x2="209.37732871498883" y2="484.80460509052455"/>
</svg>